<?xml version="1.0" standalone="no"?>
<!DOCTYPE svg PUBLIC "-//W3C//DTD SVG 20010904//EN"
 "http://www.w3.org/TR/2001/REC-SVG-20010904/DTD/svg10.dtd">
<svg version="1.0" xmlns="http://www.w3.org/2000/svg"
 width="122.000000pt" height="176.000000pt" viewBox="0 0 122.000000 176.000000"
 preserveAspectRatio="xMidYMid meet">
<metadata>
Created by potrace 1.15, written by Peter Selinger 2001-2017
</metadata>
<g transform="translate(0.000000,176.000000) scale(0.100000,-0.100000)"
fill="#000000" stroke="none">
<path d="M565 1740 c-72 -16 -185 -89 -232 -151 -49 -66 -75 -138 -79 -224 -2
-49 -8 -84 -16 -90 -8 -6 -12 -26 -10 -49 3 -30 6 -36 13 -25 8 10 9 4 5 -22
-4 -22 0 -50 9 -74 9 -20 14 -43 11 -50 -2 -7 2 -21 9 -32 8 -10 15 -26 15
-35 0 -9 11 -53 25 -97 23 -72 24 -84 12 -107 -12 -22 -12 -31 -1 -53 15 -32
42 -158 54 -260 5 -42 18 -123 29 -181 11 -58 25 -147 32 -197 l11 -93 218 0
217 0 7 247 c4 137 9 286 13 333 10 146 8 184 -7 175 -16 -10 -2 39 31 114 16
35 29 69 28 75 0 6 -9 -8 -19 -30 -10 -23 -34 -54 -54 -69 l-37 -28 -24 23
c-14 13 -25 19 -25 13 0 -5 3 -13 7 -17 13 -13 12 -38 -2 -32 -9 3 -12 -1 -10
-15 2 -12 -2 -19 -11 -19 -8 0 -14 -6 -14 -12 0 -9 -4 -8 -10 2 -8 13 -10 12
-10 -4 0 -12 -5 -16 -15 -12 -8 3 -15 2 -15 -2 0 -10 -41 -9 -57 1 -6 4 -13 3
-15 -2 -1 -5 -18 -12 -35 -16 -26 -5 -33 -3 -33 9 0 9 -6 13 -13 10 -17 -6
-64 11 -83 31 -9 8 -13 15 -10 15 3 0 -3 9 -14 20 -11 11 -25 20 -30 20 -6 0
-10 4 -10 9 0 5 -9 7 -20 4 -30 -8 -66 38 -79 104 -7 38 -8 60 -1 67 12 12 14
46 3 46 -5 0 -9 10 -9 23 -1 12 -4 42 -7 65 -2 24 0 60 5 80 5 21 10 47 12 60
2 12 7 26 11 30 5 4 5 -2 1 -12 -5 -15 -4 -17 7 -8 8 7 12 24 9 43 -3 24 -1
30 8 24 9 -5 10 -2 5 14 -3 12 -2 21 3 21 17 0 25 79 10 97 -11 15 -11 16 4
10 10 -3 20 -2 23 3 4 6 -1 10 -11 10 -13 0 -14 3 -4 15 7 8 25 15 41 15 16 0
29 4 29 8 0 13 83 32 183 43 74 9 98 7 145 -6 107 -31 119 -47 132 -175 6 -51
15 -109 21 -129 5 -20 14 -72 18 -116 l8 -80 2 77 c1 64 4 79 20 87 10 6 21 7
25 4 3 -3 6 -1 6 5 0 7 -5 12 -11 12 -8 0 -10 18 -6 58 7 67 -19 168 -58 226
-14 20 -25 39 -25 41 0 8 -102 114 -109 113 -3 -1 -31 6 -61 15 -56 16 -131
19 -185 7z m234 -1169 c-29 -50 -60 -91 -67 -91 -8 0 -34 -21 -58 -47 -38 -40
-44 -52 -45 -92 -1 -25 -1 -50 0 -54 2 -11 -48 25 -72 51 -10 11 -17 29 -15
39 3 10 -20 67 -50 127 -59 120 -58 140 4 106 52 -30 74 -33 124 -15 23 8 46
12 51 9 5 -2 19 1 31 8 13 7 27 11 32 10 4 -2 14 3 22 9 30 25 79 47 88 39 5
-5 -14 -47 -45 -99z"/>
</g>
</svg>
